<svg width="697" height="736" viewBox="0 0 697 736" fill="none" xmlns="http://www.w3.org/2000/svg">
<g clip-path="url(#clip0_1844_378)">
<path d="M304.2 0.933425C304.067 1.20009 303.667 26.2668 303.133 56.6668L302.2 112L298.6 122.667C296.6 128.533 294.067 134.8 292.867 136.667C291.4 138.933 291.133 139.2 291.667 137.333C293.533 131.733 294.067 98.6668 292.467 93.6001C290.733 88.6668 288.333 85.3334 264.867 56.5334C257.533 47.4668 248.867 36.2668 245.667 31.6001C240.733 24.6668 239.533 23.6001 238.467 25.6001C236.6 28.9334 236.867 77.3334 238.867 95.3334C239.8 103.733 242.2 119.333 244.2 130C247.4 147.333 248.067 149.333 250.467 149.067C251.8 148.933 256.067 148.4 259.667 148C266.2 147.2 266.067 147.333 250.333 155.6C222.467 170.4 200.067 187.067 183.133 206C170.2 220.4 168.6 223.467 165.533 238.267C164.2 244.8 161.8 252.8 160.067 256.133C156.733 262.8 147.133 272.267 138.333 277.467C131.267 281.467 83.5333 303.067 44.8666 319.6C13.5333 332.933 4.73327 337.867 1.79993 343.867C-0.466733 348.8 1.39993 355.733 7.39993 363.6C12.5999 370.4 16.8666 371.333 27.6666 368C35.9333 365.333 40.5999 360.8 42.9999 353.333C45.1333 346.667 46.3333 349.2 44.4666 356.4C41.9333 365.467 34.8666 373.467 23.7999 380C21.6666 381.2 22.3333 382.4 29.5333 390.133C41.2666 403.067 62.3333 416.8 77.9333 421.733C95.2666 427.333 105.533 429.067 121.667 429.067C138.333 428.933 152.067 426.667 182.067 418.533C194.467 415.2 204.867 412.667 205.133 413.067C206.2 414.133 184.867 423.067 172.6 426.8C165.8 428.8 160.733 430.933 161.267 431.333C162.867 432.8 180.6 435.333 188.467 435.333C192.333 435.333 200.6 434.667 206.733 433.733C217 432.267 218.2 432.267 222.733 434.667C230.867 439.067 233 444.533 232.867 460C232.867 470.533 231.667 477.867 227.8 494.667C223.133 514.267 222.6 518.133 221.933 540.933C221.533 557.733 221.8 566 222.6 566C223.4 566 224.467 563.867 224.867 561.2C227.8 545.6 246.067 508 261.267 486.4C275.933 465.333 286.467 454.267 308.2 437.067C318.867 428.533 332.333 417.067 338.2 411.467C350.2 399.867 366.467 378.667 371.133 368.8C372.867 365.2 374.733 362.133 375.267 362C377.533 361.867 383.667 388.533 385.133 404.8L386.067 414.933L396.467 415.733C428.733 418.267 451.8 431.733 463.133 454.8C470.467 469.467 476.333 476 489.8 483.867C495.933 487.467 502.867 491.867 505.267 493.6C510.467 497.467 512.2 503.867 509.267 509.467C508.2 511.6 507 517.867 506.733 523.333C505.667 540.133 496.333 558.267 484.867 565.867C479.133 569.6 475 571.067 452.333 577.2C412.067 588.267 391.267 609.867 382.067 650.667C379.133 663.867 378.867 701.067 381.533 721.733L383.267 735.467L390.2 727.733C407.8 707.733 425.667 693.867 449.667 681.467C480.467 665.6 507.267 656.667 567.667 642C612.867 631.067 632.733 624.533 655.4 613.2C668.333 606.667 685.267 595.333 691.4 588.933L696.6 583.6L680.333 571.333C641.667 541.867 611 510.267 584.067 472.267C564.733 444.933 551.533 421.733 521.667 362C491 300.8 477.133 276.933 453.4 244.4L446.867 235.6L446.467 218.4C445.8 191.6 438.6 169.2 423.133 145.867C413.933 132 406.6 123.333 377.933 93.3334C350.733 64.6668 325.4 32.8001 311.667 9.73343C307.133 2.00009 304.867 -0.533242 304.2 0.933425ZM219.4 254.933C224.333 256.933 228.333 259.067 228.333 259.6C228.333 261.6 214.467 271.333 211.533 271.333C206.333 271.333 203.267 266.667 202.733 257.733L202.333 249.733L206.467 250.4C208.733 250.8 214.6 252.8 219.4 254.933Z" fill="black"/>
<path d="M435.667 469.867C433.533 471.333 430.333 473.6 428.6 474.933L425.533 477.467L433 482.533C442.867 489.067 446.467 490.4 449.8 488.667C453.267 486.8 453.267 477.467 449.667 471.6C446.6 466.533 441.8 466 435.667 469.867Z" fill="black"/>
</g>
<defs>
<clipPath id="clip0_1844_378">
<rect width="697" height="736" fill="white"/>
</clipPath>
</defs>
</svg>
